<svg width="132" height="27" viewBox="0 0 132 27" fill="none" xmlns="http://www.w3.org/2000/svg">
<g clip-path="url(#clip0_4468_35474)">
<path d="M7.94371 15.7661C8.03899 15.6732 8.18915 15.6704 8.28785 15.7595L13.3984 20.3766C13.4517 20.4248 13.4823 20.4935 13.4826 20.5658L13.5014 25.335C13.5019 25.476 13.3892 25.5907 13.2496 25.5914L10.5976 25.602C10.458 25.6025 10.3444 25.4887 10.3439 25.3478L10.3182 18.8106C10.3173 18.5916 10.0618 18.4753 9.89873 18.6196L6.46911 21.656C6.37068 21.7431 6.22263 21.74 6.12793 21.6488L4.19672 19.788C4.09275 19.6878 4.09222 19.5203 4.1956 19.4196L7.94371 15.7661ZM22.9406 12.5763C23.0801 12.5715 23.197 12.6818 23.2018 12.8228L23.2925 15.4997C23.2973 15.6406 23.1879 15.7587 23.0484 15.7636L16.5798 15.9868C16.3631 15.9944 16.2558 16.2558 16.4036 16.4162L19.5121 19.7869C19.6012 19.8836 19.6026 20.0331 19.5151 20.1314L17.7321 22.1373C17.636 22.2453 17.4703 22.251 17.3674 22.1496L13.6387 18.476C13.5439 18.3826 13.5366 18.2311 13.6218 18.1288L18.0366 12.83C18.0826 12.7747 18.1498 12.7417 18.2214 12.7392L22.9406 12.5763ZM6.68068 6.35675C6.78297 6.25483 6.9487 6.25942 7.04532 6.36685L10.5478 10.2611C10.6368 10.3601 10.635 10.5117 10.5438 10.6087L5.82043 15.6286C5.77113 15.681 5.70213 15.7098 5.63059 15.708L0.910164 15.5829C0.770629 15.5792 0.660509 15.4619 0.66415 15.3209L0.733646 12.6434C0.737307 12.5024 0.853432 12.3911 0.992991 12.3947L7.46315 12.5662C7.67988 12.5719 7.80277 12.3175 7.66485 12.1485L4.76342 8.59441C4.68019 8.49241 4.6878 8.34316 4.78096 8.25031L6.68068 6.35675ZM13.7365 3C13.8762 3 13.9893 3.11433 13.9893 3.25533V9.79254C13.9895 10.0115 14.2444 10.1288 14.4081 9.98516L17.8496 6.96254C17.9485 6.87582 18.0964 6.87953 18.1908 6.97115L20.1146 8.83964C20.2183 8.94026 20.218 9.10768 20.1142 9.20806L16.3519 12.8464C16.2562 12.9389 16.106 12.9412 16.0077 12.8517L10.9154 8.21415C10.8622 8.16574 10.8318 8.09682 10.8318 8.02453V3.25533C10.8318 3.11433 10.945 3.00001 11.0846 3H13.7365Z" fill="#131313"/>
<path d="M33.3046 22.1812C32.1181 22.1812 31.1069 21.9633 30.271 21.5276C29.4485 21.0918 28.7407 20.5062 28.1475 19.7709L29.7249 18.2797C30.2239 18.8925 30.7699 19.3556 31.3631 19.6687C31.9698 19.9819 32.6575 20.1385 33.426 20.1385C34.3294 20.1385 35.0102 19.9343 35.4686 19.5257C35.9271 19.1172 36.1562 18.5657 36.1562 17.8712C36.1562 17.3129 35.9945 16.8703 35.6709 16.5434C35.3473 16.2166 34.7743 15.9715 33.9518 15.8081L32.6979 15.5834C31.3227 15.3246 30.2912 14.8684 29.6036 14.2148C28.916 13.5611 28.5722 12.6624 28.5722 11.5185C28.5722 10.892 28.6868 10.3269 28.916 9.82304C29.1587 9.30557 29.489 8.87661 29.907 8.53616C30.3384 8.1821 30.8575 7.90973 31.4642 7.71909C32.071 7.52844 32.7519 7.43311 33.5069 7.43311C34.5721 7.43311 35.4955 7.62376 36.2776 8.00506C37.0596 8.37274 37.727 8.91064 38.2798 9.61877L36.6821 11.0486C36.318 10.572 35.8731 10.1907 35.3473 9.90475C34.8214 9.61877 34.1676 9.47579 33.3855 9.47579C32.5766 9.47579 31.9496 9.6392 31.5047 9.96603C31.0597 10.2929 30.8373 10.7695 30.8373 11.3959C30.8373 11.9951 31.0193 12.4445 31.3833 12.7441C31.7474 13.03 32.3136 13.2479 33.0822 13.3977L34.3361 13.6633C35.7518 13.9356 36.7832 14.3986 37.4304 15.0523C38.0911 15.7059 38.4214 16.6047 38.4214 17.7486C38.4214 18.4159 38.3067 19.0218 38.0775 19.5666C37.8484 20.1113 37.5113 20.5812 37.0663 20.976C36.6349 21.3574 36.1023 21.6569 35.4686 21.8748C34.835 22.0791 34.1136 22.1812 33.3046 22.1812ZM44.9266 22.1812C44.1716 22.1812 43.4974 22.0519 42.9042 21.7931C42.311 21.5343 41.8054 21.1666 41.3874 20.6901C40.9694 20.1998 40.6458 19.6142 40.4166 18.9334C40.2008 18.2388 40.093 17.4694 40.093 16.6251C40.093 15.7809 40.2008 15.0182 40.4166 14.3373C40.6458 13.6428 40.9694 13.0573 41.3874 12.5806C41.8054 12.0904 42.311 11.7159 42.9042 11.4572C43.4974 11.1984 44.1716 11.0691 44.9266 11.0691C45.6951 11.0691 46.3692 11.2053 46.949 11.4776C47.5422 11.75 48.0344 12.1313 48.4254 12.6215C48.8163 13.0981 49.1063 13.6565 49.295 14.2965C49.4973 14.9365 49.5984 15.6242 49.5984 16.3596V17.1971H42.3784V17.5443C42.3784 18.3614 42.6143 19.0355 43.0862 19.5666C43.5716 20.084 44.2592 20.3428 45.1491 20.3428C45.7962 20.3428 46.3423 20.1998 46.7872 19.9138C47.2322 19.6279 47.6097 19.2398 47.9198 18.7495L49.2141 20.0364C48.8232 20.6901 48.2569 21.2144 47.5153 21.6093C46.7737 21.9906 45.9109 22.1812 44.9266 22.1812ZM44.9266 12.8053C44.549 12.8053 44.1985 12.8734 43.8749 13.0096C43.5649 13.1458 43.2951 13.3364 43.066 13.5816C42.8502 13.8267 42.6817 14.1194 42.5604 14.4599C42.439 14.8004 42.3784 15.1748 42.3784 15.5834V15.7264H47.2726V15.5221C47.2726 14.705 47.0637 14.0514 46.6457 13.5611C46.2277 13.0573 45.6547 12.8053 44.9266 12.8053ZM55.9015 22.1812C55.1465 22.1812 54.4724 22.0519 53.8791 21.7931C53.2859 21.5343 52.787 21.1666 52.3825 20.6901C51.978 20.1998 51.668 19.6142 51.4522 18.9334C51.2366 18.2388 51.1286 17.4694 51.1286 16.6251C51.1286 15.7809 51.2366 15.0182 51.4522 14.3373C51.668 13.6428 51.978 13.0573 52.3825 12.5806C52.787 12.0904 53.2859 11.7159 53.8791 11.4572C54.4724 11.1984 55.1465 11.0691 55.9015 11.0691C56.9532 11.0691 57.8161 11.3074 58.4902 11.784C59.1644 12.2606 59.6565 12.8939 59.9666 13.6837L58.1464 14.5416C57.9981 14.0514 57.7352 13.6633 57.3577 13.3773C56.9936 13.0777 56.5082 12.9279 55.9015 12.9279C55.0926 12.9279 54.4791 13.1866 54.0611 13.7041C53.6566 14.208 53.4544 14.8684 53.4544 15.6855V17.5852C53.4544 18.4023 53.6566 19.0696 54.0611 19.587C54.4791 20.0909 55.0926 20.3428 55.9015 20.3428C56.5487 20.3428 57.0611 20.1862 57.4386 19.873C57.8296 19.5462 58.1397 19.1172 58.3689 18.5861L60.0475 19.4849C59.697 20.3565 59.1711 21.0236 58.47 21.4867C57.769 21.9497 56.9127 22.1812 55.9015 22.1812ZM68.3145 20.1794H68.2336C68.1392 20.4382 68.0111 20.6901 67.8493 20.9352C67.7011 21.1803 67.5055 21.3982 67.2628 21.5888C67.0337 21.7659 66.7505 21.9089 66.4134 22.0178C66.0898 22.1267 65.7123 22.1812 65.2809 22.1812C64.1888 22.1812 63.3394 21.8272 62.7326 21.119C62.1394 20.4108 61.8428 19.3964 61.8428 18.0754V11.3142H64.0472V17.7895C64.0472 19.4373 64.7213 20.2611 66.0696 20.2611C66.3528 20.2611 66.6292 20.227 66.8988 20.159C67.1684 20.0773 67.4044 19.9615 67.6067 19.8117C67.8224 19.662 67.9909 19.4712 68.1123 19.2398C68.2471 19.0083 68.3145 18.7359 68.3145 18.4227V11.3142H70.5189V21.9361H68.3145V20.1794ZM73.4732 21.9361V11.3142H75.6776V13.3569H75.7788C75.9272 12.8121 76.2372 12.3355 76.7091 11.927C77.1811 11.5185 77.8349 11.3142 78.6708 11.3142H79.2573V13.459H78.3877C77.5113 13.459 76.8372 13.602 76.3653 13.888C75.9069 14.1739 75.6776 14.5961 75.6776 15.1544V21.9361H73.4732ZM85.0401 22.1812C84.2851 22.1812 83.6108 22.0519 83.0176 21.7931C82.4244 21.5343 81.9188 21.1666 81.5008 20.6901C81.0828 20.1998 80.7592 19.6142 80.5301 18.9334C80.3143 18.2388 80.2065 17.4694 80.2065 16.6251C80.2065 15.7809 80.3143 15.0182 80.5301 14.3373C80.7592 13.6428 81.0828 13.0573 81.5008 12.5806C81.9188 12.0904 82.4244 11.7159 83.0176 11.4572C83.6108 11.1984 84.2851 11.0691 85.0401 11.0691C85.8086 11.0691 86.4827 11.2053 87.0625 11.4776C87.6557 11.75 88.1479 12.1313 88.5388 12.6215C88.9298 13.0981 89.2198 13.6565 89.4085 14.2965C89.6107 14.9365 89.7118 15.6242 89.7118 16.3596V17.1971H82.4918V17.5443C82.4918 18.3614 82.7278 19.0355 83.1996 19.5666C83.685 20.084 84.3727 20.3428 85.2625 20.3428C85.9097 20.3428 86.4557 20.1998 86.9007 19.9138C87.3456 19.6279 87.7232 19.2398 88.0332 18.7495L89.3276 20.0364C88.9366 20.6901 88.3704 21.2144 87.6288 21.6093C86.8872 21.9906 86.0243 22.1812 85.0401 22.1812ZM85.0401 12.8053C84.6625 12.8053 84.312 12.8734 83.9884 13.0096C83.6783 13.1458 83.4086 13.3364 83.1794 13.5816C82.9637 13.8267 82.7952 14.1194 82.6738 14.4599C82.5525 14.8004 82.4918 15.1748 82.4918 15.5834V15.7264H87.3861V15.5221C87.3861 14.705 87.1771 14.0514 86.7591 13.5611C86.3411 13.0573 85.7681 12.8053 85.0401 12.8053ZM94.1948 21.9361C93.4398 21.9361 92.8735 21.7455 92.496 21.3641C92.1319 20.9693 91.9499 20.4245 91.9499 19.73V6.82031H94.1544V20.1181H95.6105V21.9361H94.1948ZM103.808 11.3142H105.932L101.503 24.04C101.381 24.3941 101.24 24.6937 101.078 24.9388C100.93 25.1976 100.748 25.4019 100.532 25.5516C100.33 25.715 100.08 25.8308 99.7836 25.8989C99.4871 25.9806 99.1365 26.0214 98.732 26.0214H97.4578V24.2035H99.2376L99.8443 22.4059L96.0219 11.3142H98.2264L100.33 17.5648L100.936 19.873H101.038L101.705 17.5648L103.808 11.3142Z" fill="#131313"/>
<path d="M110.455 21.9319C109.687 21.9319 109.107 21.7344 108.716 21.3395C108.325 20.9309 108.129 20.359 108.129 19.6236V13.1279H106.491V11.31H107.381C107.745 11.31 107.994 11.2283 108.129 11.0648C108.278 10.9014 108.352 10.6359 108.352 10.2682V8.40937H110.334V11.31H112.538V13.1279H110.334V20.1139H112.376V21.9319H110.455ZM115.839 9.41028C115.381 9.41028 115.044 9.30134 114.828 9.08345C114.626 8.86556 114.525 8.5864 114.525 8.24595V7.8987C114.525 7.55825 114.626 7.27909 114.828 7.0612C115.044 6.84331 115.381 6.73438 115.839 6.73438C116.298 6.73438 116.628 6.84331 116.83 7.0612C117.033 7.27909 117.134 7.55825 117.134 7.8987V8.24595C117.134 8.5864 117.033 8.86556 116.83 9.08345C116.628 9.30134 116.298 9.41028 115.839 9.41028ZM114.727 11.31H116.932V21.9319H114.727V11.31ZM118.704 21.9319L122.405 16.5596L118.805 11.31H121.354L123.72 15.0072H123.781L126.207 11.31H128.553L124.954 16.5392L128.614 21.9319H126.066L123.639 18.0712H123.578L121.05 21.9319H118.704Z" fill="#131313"/>
</g>
<defs>
<clipPath id="clip0_4468_35474">
<rect width="132" height="26.6047" fill="white"/>
</clipPath>
</defs>
</svg>
